<svg viewBox="0 0 527 123" id="logo-blue-trademark" xmlns="http://www.w3.org/2000/svg" width="100%" height="100%"><g fill="none"><path fill="#426FAC" d="M69.212 74.477L48.068 61.768 69.212 49.06a7.023 7.023 0 0 0 0-12.038L10.85 1.944A6.913 6.913 0 0 0 .376 7.87v107.798a6.913 6.913 0 0 0 10.474 5.925l58.362-35.077a7.023 7.023 0 0 0 0-12.038z"></path><path fill="#004899" d="M135.182 38.632a18.954 18.954 0 0 0-16.572 8.878V20.087h-10.851v68.064h10.851v-7.892a19.081 19.081 0 0 0 16.67 8.977c13.712 0 23.477-11.147 23.477-25.351 0-14.304-9.765-25.253-23.575-25.253zm-2.072 39.95c-8.032-.081-14.5-6.616-14.5-14.649 0-8.032 6.468-14.567 14.5-14.648 7.992.137 14.4 6.655 14.4 14.648 0 7.994-6.408 14.512-14.4 14.649zm35.322-58.495h10.851v68.064h-10.85V20.087zm54.155 19.531h10.752v48.533h-10.752v-6.807a14.808 14.808 0 0 1-13.712 7.892c-10.653 0-17.558-7.99-17.558-18.742V39.618h10.85v27.916c0 6.61 3.848 11.048 10.16 11.048 6.117 0 9.964-4.143 10.26-10.357V39.618zm44.654-.986c-14.007 0-24.365 10.95-24.365 25.253 0 14.895 10.654 25.35 24.957 25.35a36.672 36.672 0 0 0 17.756-4.438V74.045a30.927 30.927 0 0 1-16.967 5.326c-7.892 0-13.711-4.833-14.797-11.837h35.808a22.84 22.84 0 0 0 .69-5.524c0-12.823-9.173-23.378-23.082-23.378zM253.727 59.15c.69-6.313 6.116-11.442 13.415-11.442 7.103 0 12.528 4.636 12.725 11.442h-26.14zm68.436-20.518c3.847 0 8.68.987 11.64 2.664v11.64a19.488 19.488 0 0 0-11.64-3.748c-8.04.108-14.5 6.657-14.5 14.697s6.46 14.589 14.5 14.698a19.067 19.067 0 0 0 11.64-3.748v11.54a25.079 25.079 0 0 1-11.64 2.86c-15.093 0-25.548-11.146-25.548-25.35 0-14.304 10.455-25.253 25.548-25.253zm43.796 0a24.81 24.81 0 0 0-25.252 25.253 25.253 25.253 0 1 0 50.505 0 24.87 24.87 0 0 0-25.252-25.253zm0 39.95c-7.961-.217-14.302-6.733-14.302-14.697 0-7.965 6.341-14.481 14.303-14.698 8.187 0 14.204 6.609 14.204 14.698s-6.017 14.697-14.204 14.697zm72.018-31.072a19.097 19.097 0 0 0-16.572-8.878c-13.908 0-23.674 10.95-23.674 25.253 0 14.204 9.766 25.351 23.575 25.351a19.35 19.35 0 0 0 16.67-8.976v7.89h10.753V20.088h-10.752V47.51zm-14.5 31.072a14.65 14.65 0 1 1 14.5-14.697 14.503 14.503 0 0 1-14.5 14.697zm59.065-39.95c-14.007 0-24.364 10.95-24.364 25.253 0 14.895 10.653 25.351 24.956 25.351a36.671 36.671 0 0 0 17.756-4.438V74.045a30.926 30.926 0 0 1-16.967 5.326c-7.891 0-13.711-4.833-14.796-11.837h35.807c.455-1.806.686-3.661.69-5.524 0-12.823-9.174-23.378-23.082-23.378zM469.028 59.15c.69-6.313 6.116-11.442 13.415-11.442 7.102 0 12.528 4.636 12.725 11.442h-26.14zM10.85 39.399l37.218 22.37L10.85 84.138A6.913 6.913 0 0 1 .376 78.213v-32.89A6.913 6.913 0 0 1 10.85 39.4zm509.082-10.964a2.174 2.174 0 0 0 1.73-2.224c0-1.513-1.205-2.408-2.935-2.408h-3.057v8.523h1.792v-3.18h.493c1.143 0 1.946 1.327 2.255 3.18h1.853a4.964 4.964 0 0 0-2.131-3.89zm-1.205-.988h-1.266V25.5h1.266c.65 0 1.112.34 1.112.958a.977.977 0 0 1-1.112.988zm-.154-7.196a7.72 7.72 0 0 0-7.937 7.906 7.937 7.937 0 0 0 15.874 0 7.701 7.701 0 0 0-7.937-7.906zm0 14.298a6.163 6.163 0 0 1-6.393-6.392 6.393 6.393 0 0 1 12.786 0 6.146 6.146 0 0 1-6.393 6.392z"></path></g></svg>